<svg width="2048" height="2048" xmlns="http://www.w3.org/2000/svg">
  <defs>
    <!-- Define the static gradient -->
    <linearGradient id="gradient" x1="0%" y1="0%" x2="100%" y2="100%">
      <stop offset="0%" stop-color="#ff0000"/>
      <stop offset="100%" stop-color="#ff0000"/>
    </linearGradient>
  </defs>

  <!-- Draw the checkerboard pattern -->
  <rect width="2048" height="2048" fill="white"/>
  <g stroke="black" stroke-width="2">
    <!-- Red squares with static gradient fill -->
    <rect x="0" y="0" width="256" height="256" fill="url(#gradient)"/>
    <rect x="256" y="0" width="256" height="256" fill="black"/>
    <rect x="512" y="0" width="256" height="256" fill="url(#gradient)"/>
    <rect x="768" y="0" width="256" height="256" fill="black"/>
    <rect x="1024" y="0" width="256" height="256" fill="url(#gradient)"/>
    <rect x="1280" y="0" width="256" height="256" fill="black"/>
    <rect x="1536" y="0" width="256" height="256" fill="url(#gradient)"/>
    <rect x="1792" y="0" width="256" height="256" fill="black"/>

    <rect x="0" y="256" width="256" height="256" fill="black"/>
    <rect x="256" y="256" width="256" height="256" fill="url(#gradient)"/>
    <rect x="512" y="256" width="256" height="256" fill="black"/>
    <rect x="768" y="256" width="256" height="256" fill="url(#gradient)"/>
    <rect x="1024" y="256" width="256" height="256" fill="black"/>
    <rect x="1280" y="256" width="256" height="256" fill="url(#gradient)"/>
    <rect x="1536" y="256" width="256" height="256" fill="black"/>
    <rect x="1792" y="256" width="256" height="256" fill="url(#gradient)"/>

    <rect x="0" y="512" width="256" height="256" fill="url(#gradient)"/>
    <rect x="256" y="512" width="256" height="256" fill="black"/>
    <rect x="512" y="512" width="256" height="256" fill="url(#gradient)"/>
    <rect x="768" y="512" width="256" height="256" fill="black"/>
    <rect x="1024" y="512" width="256" height="256" fill="url(#gradient)"/>
    <rect x="1280" y="512" width="256" height="256" fill="black"/>
    <rect x="1536" y="512" width="256" height="256" fill="url(#gradient)"/>
    <rect x="1792" y="512" width="256" height="256" fill="black"/>

    <rect x="0" y="768" width="256" height="256" fill="black"/>
    <rect x="256" y="768" width="256" height="256" fill="url(#gradient)"/>
    <rect x="512" y="768" width="256" height="256" fill="black"/>
    <rect x="768" y="768" width="256" height="256" fill="url(#gradient)"/>
    <rect x="1024" y="768" width="256" height="256" fill="black"/>
    <rect x="1280" y="768" width="256" height="256" fill="url(#gradient)"/>
    <rect x="1536" y="768" width="256" height="256" fill="black"/>
    <rect x="1792" y="768" width="256" height="256" fill="url(#gradient)"/>

    <rect x="0" y="1024" width="256" height="256" fill="url(#gradient)"/>
    <rect x="256" y="1024" width="256" height="256" fill="black"/>
    <rect x="512" y="1024" width="256" height="256" fill="url(#gradient)"/>
    <rect x="768" y="1024" width="256" height="256" fill="black"/>
    <rect x="1024" y="1024" width="256" height="256" fill="url(#gradient)"/>
    <rect x="1280" y="1024" width="256" height="256" fill="black"/>
    <rect x="1536" y="1024" width="256" height="256" fill="url(#gradient)"/>
    <rect x="1792" y="1024" width="256" height="256" fill="black"/>

    <rect x="0" y="1280" width="256" height="256" fill="black"/>
    <rect x="256" y="1280" width="256" height="256" fill="url(#gradient)"/>
    <rect x="512" y="1280" width="256" height="256" fill="black"/>
    <rect x="768" y="1280" width="256" height="256" fill="url(#gradient)"/>
    <rect x="1024" y="1280" width="256" height="256" fill="black"/>
    <rect x="1280" y="1280" width="256" height="256" fill="url(#gradient)"/>
    <rect x="1536" y="1280" width="256" height="256" fill="black"/>
    <rect x="1792" y="1280" width="256" height="256" fill="url(#gradient)"/>

    <rect x="0" y="1536" width="256" height="256" fill="url(#gradient)"/>
    <rect x="256" y="1536" width="256" height="256" fill="black"/>
    <rect x="512" y="1536" width="256" height="256" fill="url(#gradient)"/>
    <rect x="768" y="1536" width="256" height="256" fill="black"/>
    <rect x="1024" y="1536" width="256" height="256" fill="url(#gradient)"/>
    <rect x="1280" y="1536" width="256" height="256" fill="black"/>
    <rect x="1536" y="1536" width="256" height="256" fill="url(#gradient)"/>
    <rect x="1792" y="1536" width="256" height="256" fill="black"/>

    <rect x="0" y="1792" width="256" height="256" fill="black"/>
    <rect x="256" y="1792" width="256" height="256" fill="url(#gradient)"/>
    <rect x="512" y="1792" width="256" height="256" fill="black"/>
    <rect x="768" y="1792" width="256" height="256" fill="url(#gradient)"/>
    <rect x="1024" y="1792" width="256" height="256" fill="black"/>
    <rect x="1280" y="1792" width="256" height="256" fill="url(#gradient)"/>
    <rect x="1536" y="1792" width="256" height="256" fill="black"/>
    <rect x="1792" y="1792" width="256" height="256" fill="url(#gradient)"/>
  </g>
</svg>
